<svg width="65" height="65" viewBox="0 0 65 65" fill="none" xmlns="http://www.w3.org/2000/svg">
<g clip-path="url(#clip0_1_3)">
<rect width="65" height="65" fill="#1E2533"/>
<rect x="8.41528" y="40.6013" width="20.83" height="7.95617" rx="2.7013" fill="#43B1E0"/>
<rect x="-7.21484" y="18.4586" width="20.83" height="7.95617" rx="2.7013" fill="#E06B45"/>
<rect x="0.739929" y="29.5729" width="12.8742" height="7.95617" rx="2.7013" fill="#E7B24D"/>
<rect x="24.639" y="7.32413" width="12.8742" height="7.95617" rx="2.7013" fill="#2E3E5C"/>
<rect x="-15.2839" y="-3.8103" width="35.2765" height="7.95617" rx="2.7013" fill="#2E3E5C"/>
<rect x="47.6585" y="-3.8103" width="25.7461" height="7.95617" rx="2.7013" fill="#2E3E5C"/>
<rect x="7.11835" y="62.7971" width="12.8742" height="7.95617" rx="2.7013" fill="#E7B24D"/>
<rect x="47.6585" y="62.7971" width="35.5943" height="7.95617" rx="2.7013" fill="#43B1E0"/>
<rect x="-7.60852" y="40.6013" width="12.8742" height="7.95617" rx="2.7013" fill="#2E3E5C"/>
<rect x="50.3516" y="40.6013" width="12.8742" height="7.95617" rx="2.7013" fill="#E7B24D"/>
<rect x="23.4106" y="-3.8103" width="20.83" height="7.95617" rx="2.7013" fill="#E06B45"/>
<rect x="50.3516" y="18.4586" width="12.8742" height="7.95617" rx="2.7013" fill="#2E3E5C"/>
<rect x="0.739929" y="7.32413" width="20.83" height="7.95617" rx="2.7013" fill="#43B1E0"/>
<rect x="23.4106" y="62.7971" width="20.83" height="7.95617" rx="2.7013" fill="#2E3E5C"/>
<rect x="-17.1297" y="62.7971" width="20.83" height="7.95617" rx="2.7013" fill="#2E3E5C"/>
<rect x="40.5825" y="7.32413" width="20.83" height="7.95617" rx="2.7013" fill="#43B1E0"/>
<rect x="50.3516" y="29.5729" width="20.83" height="7.95617" rx="2.7013" fill="#43B1E0"/>
<rect x="14.8738" y="51.6826" width="20.83" height="7.95617" rx="2.7013" fill="#2E3E5C"/>
<rect x="38.8533" y="51.6826" width="20.83" height="7.95617" rx="2.7013" fill="#43B1E0"/>
<rect x="-1.15009" y="51.6826" width="12.8742" height="7.95617" rx="2.7013" fill="#43B1E0"/>
<rect x="62.8329" y="51.6826" width="12.8742" height="7.95617" rx="2.7013" fill="#E06B45"/>
<path d="M17.2924 19.3221V36.3622C17.2924 37.1081 17.8971 37.7128 18.6431 37.7128H23.887C24.633 37.7128 25.2377 37.1081 25.2377 36.3622L25.2377 30.2395C25.2377 29.7277 25.9102 29.5389 26.1766 29.9758L37.0602 47.826C37.3054 48.2282 37.7424 48.4735 38.2134 48.4735H45.1273C46.2076 48.4735 46.8507 47.2683 46.2493 46.3709L27.6167 18.5701C27.366 18.1959 26.9452 17.9714 26.4948 17.9714H18.6431C17.8971 17.9714 17.2924 18.5761 17.2924 19.3221Z" fill="#F6FBFF"/>
<path d="M39.5502 18.0127H44.8661C45.612 18.0127 46.2167 18.6174 46.2167 19.3633V34.9848C46.2167 35.9914 44.9077 36.3818 44.3563 35.5397L38.6134 26.7695C38.3434 26.3572 38.1996 25.875 38.1996 25.3822V19.3633C38.1996 18.6174 38.8043 18.0127 39.5502 18.0127Z" fill="#F6FBFF"/>
</g>
<defs>
<clipPath id="clip0_1_3">
<rect width="65" height="65" fill="white"/>
</clipPath>
</defs>
</svg>
