<svg width="1000" height="1000" viewBox="0 0 1000 1000" fill="none" xmlns="http://www.w3.org/2000/svg">
<g clip-path="url(#clip0_29_53)">
<rect width="1000" height="1000" fill="#1E2533"/>
<rect x="129.466" y="624.635" width="320.461" height="122.403" rx="41.5584" fill="#43B1E0"/>
<rect x="-110.997" y="283.977" width="320.461" height="122.403" rx="41.5584" fill="#E06B45"/>
<rect x="11.3837" y="454.968" width="198.065" height="122.403" rx="41.5584" fill="#E7B24D"/>
<rect x="379.062" y="112.679" width="198.065" height="122.403" rx="41.5584" fill="#2E3E5C"/>
<rect x="-235.137" y="-58.6204" width="542.715" height="122.403" rx="41.5584" fill="#2E3E5C"/>
<rect x="733.208" y="-58.6204" width="396.094" height="122.403" rx="41.5584" fill="#2E3E5C"/>
<rect x="109.513" y="966.108" width="198.065" height="122.403" rx="41.5584" fill="#E7B24D"/>
<rect x="733.208" y="966.108" width="547.605" height="122.403" rx="41.5584" fill="#43B1E0"/>
<rect x="-117.054" y="624.635" width="198.065" height="122.403" rx="41.5584" fill="#2E3E5C"/>
<rect x="774.64" y="624.635" width="198.065" height="122.403" rx="41.5584" fill="#E7B24D"/>
<rect x="360.163" y="-58.6204" width="320.461" height="122.403" rx="41.5584" fill="#E06B45"/>
<rect x="774.64" y="283.978" width="198.065" height="122.403" rx="41.5584" fill="#2E3E5C"/>
<rect x="11.3837" y="112.679" width="320.461" height="122.403" rx="41.5584" fill="#43B1E0"/>
<rect x="360.163" y="966.108" width="320.461" height="122.403" rx="41.5584" fill="#2E3E5C"/>
<rect x="-263.534" y="966.108" width="320.461" height="122.403" rx="41.5584" fill="#2E3E5C"/>
<rect x="624.346" y="112.679" width="320.461" height="122.403" rx="41.5584" fill="#43B1E0"/>
<rect x="774.64" y="454.968" width="320.461" height="122.403" rx="41.5584" fill="#43B1E0"/>
<rect x="228.827" y="795.117" width="320.461" height="122.403" rx="41.5584" fill="#2E3E5C"/>
<rect x="597.743" y="795.117" width="320.461" height="122.403" rx="41.5584" fill="#43B1E0"/>
<rect x="-17.6937" y="795.117" width="198.065" height="122.403" rx="41.5584" fill="#43B1E0"/>
<rect x="966.659" y="795.117" width="198.065" height="122.403" rx="41.5584" fill="#E06B45"/>
<path d="M266.037 297.262L266.037 559.418C266.037 570.894 275.341 580.197 286.817 580.197H367.493C378.969 580.197 388.272 570.894 388.272 559.418L388.272 465.223C388.272 457.35 398.618 454.444 402.717 461.167L570.157 735.785C573.929 741.972 580.652 745.747 587.898 745.747H694.267C710.886 745.747 720.781 727.205 711.528 713.399L424.873 285.694C421.015 279.938 414.541 276.483 407.612 276.483L286.817 276.483C275.341 276.483 266.037 285.786 266.037 297.262Z" fill="#F6FBFF"/>
<path d="M608.465 277.118H690.248C701.724 277.118 711.027 286.421 711.027 297.898V538.228C711.027 553.714 690.888 559.721 682.405 546.765L594.053 411.839C589.899 405.496 587.686 398.078 587.686 390.496V297.898C587.686 286.421 596.989 277.118 608.465 277.118Z" fill="#F6FBFF"/>
</g>
<defs>
<clipPath id="clip0_29_53">
<rect width="1000" height="1000" fill="white"/>
</clipPath>
</defs>
</svg>
